<?xml version="1.0" encoding="UTF-8"?>
<svg width="25px" height="25px" viewBox="0 0 25 25" version="1.1" xmlns="http://www.w3.org/2000/svg" xmlns:xlink="http://www.w3.org/1999/xlink">
    <!-- Generator: Sketch 50.2 (55047) - http://www.bohemiancoding.com/sketch -->
    <title>pinterest</title>
    <desc>Created with Sketch.</desc>
    <defs></defs>
    <g id="Symbols" stroke="none" stroke-width="1" fill="none" fill-rule="evenodd">
        <g id="pinterest" fill="#424143" fill-rule="nonzero">
            <g id="Shape">
                <path d="M25,12.87 C25.1704032,6.65630926 20.7490952,1.26150195 14.6229724,0.208121779 C8.49684965,-0.845258387 2.52749388,2.76288555 0.612600689,8.67661313 C-1.3022925,14.5903407 1.41916698,21.0126121 7,23.75 C7.11151131,23.8075496 7.24529854,23.8009975 7.35065282,23.7328271 C7.4560071,23.6646567 7.51680404,23.5453014 7.51,23.42 C7.46385415,22.6297349 7.5176121,21.8368052 7.67,21.06 L8.86,16.06 C9.09221478,15.2099315 9.13994889,14.3200313 9,13.45 C8.93806037,13.1203159 8.90792205,12.7854457 8.91,12.45 C8.91,10.6 9.98,9.22 11.31,9.22 C11.7915807,9.21364464 12.2524577,9.41551208 12.5743286,9.77378503 C12.8961995,10.132058 13.0477213,10.6118487 12.99,11.09 C12.99,12.23 12.26,13.93 11.89,15.51 C11.7380695,16.1092305 11.8823819,16.7449775 12.2781381,17.2198849 C12.6738943,17.6947924 13.2731956,17.9513819 13.89,17.91 C16.18,18 18,15.46 18,11.87 C18.0473835,10.3964712 17.4730149,8.97092214 16.4173039,7.94184169 C15.3615929,6.91276124 13.9218377,6.37499319 12.45,6.46 C10.8786892,6.39160205 9.34794526,6.9698395 8.21429252,8.06003555 C7.08063978,9.1502316 6.44304145,10.6572166 6.45,12.23 C6.4618156,13.3099005 6.81151218,14.3589902 7.45,15.23 C7.54399374,15.3324218 7.57807012,15.4762999 7.54,15.61 L7.17,17.12 C7.11,17.36 6.98,17.41 6.73,17.3 C5.05,16.56 4,14.13 4,12.18 C4,7.99 7,4.18 12.78,4.18 C17.4,4.14 21,7.42 21,11.81 C21,16.39 18.11,20.07 14.11,20.07 C13.1292954,20.0820795 12.179866,19.7251512 11.45,19.07 C11.3667183,18.9823792 11.2421934,18.9473072 11.1254245,18.9785846 C11.0086555,19.009862 10.9183339,19.1024821 10.89,19.22 L10.23,21.72 C9.98814003,22.5551161 9.6526781,23.3602248 9.23,24.12 C9.1770325,24.2164168 9.17247799,24.3321265 9.21770314,24.4324084 C9.2629283,24.5326902 9.3526701,24.6058741 9.46,24.63 C10.5058846,24.893764 11.5814296,25.0214849 12.66,25.01 C19.319239,24.8226515 24.7038726,19.5252891 25,12.87 Z"></path>
            </g>
        </g>
    </g>
</svg>